<?xml version="1.0" standalone="no"?><!DOCTYPE svg PUBLIC "-//W3C//DTD SVG 1.1//EN" "http://www.w3.org/Graphics/SVG/1.1/DTD/svg11.dtd"><svg t="1722672596113" class="icon" viewBox="0 0 1024 1024" version="1.1" xmlns="http://www.w3.org/2000/svg" p-id="7054" xmlns:xlink="http://www.w3.org/1999/xlink" width="256" height="256"><path d="M719.245078 321.267033c0-50.797844-18.408393-97.36923-48.869422-133.454822V98.69502a33.586679 33.586679 0 0 0-9.457302-23.366044C621.466059 34.526785 568.587127 12.052636 512.020088 12.052636c-114.25899 0-207.216955 92.957965-207.216956 207.20892 0 6.420038 0.361579 13.040952 1.100808 20.007376-0.747263 2.780141-1.140983 5.704914-1.140983 8.661828v630.143957c0 12.012461 6.412002 23.116956 16.817445 29.127204l173.622241 100.253827a33.66703 33.66703 0 0 0 33.63489 0l124.720678-72.018518a33.65096 33.65096 0 0 0 16.817445-29.127204V454.729891c30.461029-36.085593 48.869422-82.648943 48.869422-133.462858z" fill="#FFFFFF" p-id="7055"></path><path d="M716.34441 355.118871a206.445587 206.445587 0 0 0-45.976789-99.61102V166.406729a33.586679 33.586679 0 0 0-9.457302-23.382114c-39.452296-40.802191-92.331228-63.27634-148.898266-63.276339-114.25899 0-207.216955 92.966-207.216956 207.216955 0 6.420038 0.361579 13.040952 1.100808 19.991306a33.66703 33.66703 0 0 0-1.140983 8.677898v562.440282c0 12.012461 6.412002 23.116956 16.817445 29.127204l173.622241 100.253827a33.66703 33.66703 0 0 0 33.63489 0l124.720678-72.018518a33.65096 33.65096 0 0 0 16.817445-29.127204V454.729891a206.509867 206.509867 0 0 0 45.976789-99.61102z" fill="#D3EFF4" p-id="7056"></path><path d="M512.020088 1024a45.832158 45.832158 0 0 1-22.835728-6.106669l-173.630276-100.261862a45.808052 45.808052 0 0 1-22.843763-39.564787V247.93076c0-3.189931 0.337474-6.363792 0.996351-9.473372-0.642807-6.636985-0.956176-12.936496-0.956176-19.195832C292.750496 98.357546 391.116077 0 512.020088 0c59.861426 0 115.817798 23.775834 157.560094 66.956411a45.406298 45.406298 0 0 1 12.84811 31.746644v84.778242c31.545766 38.95412 48.869422 87.711051 48.869422 137.793771s-17.323656 98.839651-48.869422 137.793772v447.249221a45.816087 45.816087 0 0 1-22.843763 39.564787l-124.720678 72.018518a45.896438 45.896438 0 0 1-22.843763 6.098634zM512.020088 24.105272C404.406117 24.105272 316.855769 111.655621 316.855769 219.261556c0 6.050423 0.337474 12.181198 1.028491 18.745867 0.160702 1.470422 0.040175 2.964948-0.337474 4.38716a21.076043 21.076043 0 0 0-0.731193 5.536177v630.143957c0 7.681547 4.138072 14.848848 10.791127 18.689621l173.622241 100.253827c6.540564 3.768458 15.02562 3.776493 21.590289-0.008035l124.712643-72.010483a21.662605 21.662605 0 0 0 10.791127-18.689621V454.729891a12.052636 12.052636 0 0 1 2.844422-7.777968c29.681625-35.161557 46.033035-79.796486 46.033035-125.68489s-16.343375-90.523332-46.033035-125.684889a12.052636 12.052636 0 0 1-2.844422-7.777968v-89.109156c0-5.624564-2.153404-10.943794-6.058458-14.985445C615.094232 45.269701 565.292739 24.105272 512.020088 24.105272z" fill="#33363A" p-id="7057"></path><path d="M512.004018 315.055908m-115.600851 0a115.600851 115.600851 0 1 0 231.201701 0 115.600851 115.600851 0 1 0-231.201701 0Z" fill="#0086FF" p-id="7058"></path><path d="M396.403167 315.055908c0 63.838796 51.75402 115.600851 115.600851 115.600851s115.600851-51.75402 115.60085-115.600851H396.403167z" fill="#FFFFFF" p-id="7059"></path><path d="M512.004018 403.602608c63.838796 0 115.600851-39.645138 115.60085-88.5467H396.403167c0 48.901562 51.75402 88.5467 115.600851 88.5467z" fill="#D8E5EA" p-id="7060"></path><path d="M639.649469 315.055908c0-66.345744-50.894265-120.984361-115.689236-127.04282 0.024105-0.297298 0.088386-0.586562 0.088386-0.891895v-56.751846a12.052636 12.052636 0 1 0-24.105273 0v56.751846c0 0.305333 0.064281 0.586562 0.088386 0.891895-64.794972 6.058458-115.689237 60.697076-115.689236 127.04282s50.894265 120.992396 115.689236 127.04282c-0.024105 0.297298-0.088386 0.586562-0.088386 0.891895v56.751846a12.052636 12.052636 0 1 0 24.105273 0v-56.751846c0-0.305333-0.064281-0.586562-0.088386-0.891895 64.794972-6.058458 115.689237-60.697076 115.689236-127.04282zM512.004018 211.507694c53.007494 0 96.782668 40.062962 102.78488 91.495578H409.219137c5.994178-51.432616 49.769352-91.495578 102.784881-91.495578z m0 207.096429c-53.007494 0-96.782668-40.062962-102.784881-91.495579h205.569761c-6.002213 51.432616-49.777387 91.495578-102.78488 91.495579zM391.662463 706.139845c-16.769234 0-30.412818-13.643584-30.412818-30.412818s13.643584-30.412818 30.412818-30.412819 30.412818 13.643584 30.412819 30.412819-13.643584 30.412818-30.412819 30.412818z m0-36.720365a6.315581 6.315581 0 1 0 0.008036 12.623128 6.315581 6.315581 0 0 0-0.008036-12.623128zM410.022646 778.72082h-36.720365a12.052636 12.052636 0 1 1 0-24.105272h36.720365a12.052636 12.052636 0 1 1 0 24.105272zM410.022646 833.375507h-36.720365a12.052636 12.052636 0 1 1 0-24.105272h36.720365a12.052636 12.052636 0 1 1 0 24.105272z" fill="#33363A" p-id="7061"></path><path d="M512.004018 328.289703m-38.222927 0a38.222927 38.222927 0 1 0 76.445853 0 38.222927 38.222927 0 1 0-76.445853 0Z" fill="#A7BBC1" p-id="7062"></path><path d="M512.004018 315.296961m-38.222927 0a38.222927 38.222927 0 1 0 76.445853 0 38.222927 38.222927 0 1 0-76.445853 0Z" fill="#FFFFFF" p-id="7063"></path><path d="M484.973972 342.335041a38.222927 38.222927 0 1 1 54.052056-54.068125" fill="#D8E5EA" p-id="7064"></path><path d="M512.004018 365.548418a50.114861 50.114861 0 0 1-35.547242-14.688145 50.339844 50.339844 0 0 1 0-71.110554 50.331808 50.331808 0 0 1 71.094483 0 50.339844 50.339844 0 0 1 0 71.110554 50.179142 50.179142 0 0 1-35.547241 14.688145z m0-76.413713c-6.701266 0-13.402531 2.547124-18.504814 7.649407a26.194396 26.194396 0 0 0 0 37.017663 26.202431 26.202431 0 0 0 37.001592 0 26.194396 26.194396 0 0 0 0-37.017663 26.081905 26.081905 0 0 0-18.496778-7.649407z" fill="#33363A" p-id="7065"></path></svg>