<?xml version="1.0" standalone="no"?><!DOCTYPE svg PUBLIC "-//W3C//DTD SVG 1.1//EN" "http://www.w3.org/Graphics/SVG/1.1/DTD/svg11.dtd"><svg t="1722672624466" class="icon" viewBox="0 0 1024 1024" version="1.1" xmlns="http://www.w3.org/2000/svg" p-id="7624" xmlns:xlink="http://www.w3.org/1999/xlink" width="256" height="256"><path d="M12.092584 511.991938c0 276.097874 223.825665 499.915478 499.891293 499.915478 276.097874 0 499.92354-223.817604 499.923539-499.915478C1011.907416 235.918249 788.081751 12.092584 511.983877 12.092584 235.918249 12.092584 12.092584 235.918249 12.092584 511.991938z" fill="#12D66B" p-id="7625"></path><path d="M1011.907416 511.991938C1011.907416 235.918249 788.081751 12.092584 511.983877 12.092584 235.918249 12.092584 12.092584 235.918249 12.092584 511.991938" fill="#09B285" p-id="7626"></path><path d="M12.092584 524.084522a12.092584 12.092584 0 0 1-12.092584-12.092584C0 229.678476 229.670414 0 511.983877 0a12.092584 12.092584 0 0 1 0 24.185168C243.012565 24.185168 24.185168 243.020627 24.185168 511.991938a12.092584 12.092584 0 0 1-12.092584 12.092584zM511.983877 1024a12.092584 12.092584 0 0 1 0-24.185168c268.987435 0 487.830956-218.835459 487.830955-487.822894a12.092584 12.092584 0 0 1 24.185168 0c0 282.313462-229.694599 512.008062-512.016123 512.008062z" fill="#33363A" p-id="7627"></path><path d="M127.681562 511.991938c0 212.257093 172.08553 384.302315 384.302315 384.302315 212.265155 0 384.302315-172.045221 384.302314-384.302315 0-212.224846-172.03716-384.294253-384.302314-384.294253-212.216785 0-384.302315 172.069406-384.302315 384.294253z" fill="#21CEA1" p-id="7628"></path><path d="M127.681562 511.991938c0 212.257093 172.08553 384.302315 384.302315 384.302315 212.265155 0 384.302315-172.045221 384.302314-384.302315h-768.604629z" fill="#50FF9F" p-id="7629"></path><path d="M894.254637 551.736231H428.577295v-414.856244a381.440403 381.440403 0 0 0-108.736514 42.372414v665.50326a381.738687 381.738687 0 0 0 108.736514 42.35629V660.480806h437.945016a381.553267 381.553267 0 0 0 27.732326-108.744575z" fill="#0086FF" p-id="7630"></path><path d="M908.378775 511.991938c0-218.569422-177.825476-396.386837-396.394898-396.386836-8.287451 0-16.679704 0.257975-24.934908 0.773925a12.084522 12.084522 0 1 0 1.49948 24.136797c7.755377-0.483703 15.639742-0.725555 23.435428-0.725555 205.235333 0 372.209731 166.966336 372.20973 372.201669 0 7.803747-0.241852 15.68005-0.725555 23.427366-0.088679 1.475295 0.120926 2.894158 0.524012 4.224343H440.669879V146.545993a12.060337 12.060337 0 0 0-5.24012-23.556354c-2.878035 0.564321-5.723823 1.354369-8.601858 1.983184-0.290222 0.040309-0.580444 0.024185-0.870666 0.088679-3.13601 0.693308-6.247835 1.491419-9.367722 2.265344-4.522626 1.120579-8.996882 2.313714-13.471138 3.595528-3.78901 1.080271-7.553834 2.208912-11.302535 3.402047-2.216974 0.70137-4.490379 1.273752-6.683168 2.015431-0.435333 0.145111-0.830357 0.370839-1.233444 0.556259a393.799024 393.799024 0 0 0-45.468115 18.791875c-0.46758 0.161234-0.943222 0.298284-1.394678 0.51595-2.112171 1.039962-4.143725 2.257282-6.239773 3.337554-3.216627 1.660715-6.409069 3.377862-9.59345 5.127255a398.700551 398.700551 0 0 0-29.223744 17.55037 12.092584 12.092584 0 1 0 13.43083 20.105936c0.757802-0.507889 1.572036-0.951283 2.337899-1.45111v622.058637c-101.085939-66.622075-167.974051-181.090474-167.974051-310.948701 0-7.803747 0.241852-15.68005 0.725555-23.427366a12.092584 12.092584 0 0 0-11.318659-12.818139 12.157078 12.157078 0 0 0-12.818139 11.318658 407.076681 407.076681 0 0 0-0.773925 24.926847c0 146.062289 79.472461 273.840592 197.391277 342.599023 0.28216 0.193481 0.507889 0.451456 0.806172 0.620753 2.3379 1.354369 4.724169 2.62006 7.086254 3.926059 1.193135 0.661061 2.370146 1.330184 3.571344 1.975122 5.095009 2.740986 10.222264 5.393292 15.414013 7.90855l0.483703 0.241851c5.199811 2.499134 10.456054 4.861219 15.752606 7.134625 1.975122 0.846481 3.974429 1.63653 5.965675 2.458825a375.71658 375.71658 0 0 0 26.047426 9.601512c2.781294 0.919036 5.546465 1.854196 8.351944 2.708739 1.934813 0.588506 3.893812 1.104456 5.836687 1.660714 6.570304 1.894505 13.205102 3.619713 19.912455 5.175626 1.257629 0.290222 2.499134 0.628814 3.756763 0.910975 0.104802 0.024185 0.209605 0.016123 0.314407 0.032247a396.201417 396.201417 0 0 0 110.63908 8.666352 12.084522 12.084522 0 1 0-1.49948-24.136798 371.967879 371.967879 0 0 1-94.749425-6.207526v-204.687136h408.302062a11.931349 11.931349 0 0 0-2.958652 3.821257 373.144891 373.144891 0 0 1-24.418957 42.267611 12.108707 12.108707 0 0 0 10.044906 18.81606c3.893812 0 7.731192-1.878381 10.06103-5.369107a398.902094 398.902094 0 0 0 26.015178-45.02472 12.060337 12.060337 0 0 0-3.023146-14.511101h1.830011a12.092584 12.092584 0 0 0 11.149363-7.416785 396.007936 396.007936 0 0 0 9.778869-25.878129c0.032247-0.088679 0.096741-0.145111 0.120926-0.23379l0.225728-0.741679c2.418517-7.191057 4.570997-14.454669 6.562242-21.766651 0.354716-1.297937 0.725555-2.587813 1.07221-3.893812 1.910628-7.279735 3.587467-14.623965 5.070823-22.008502 0.128988-0.628814 0.306345-1.241505 0.427271-1.87032 0.040309-0.201543 0.024185-0.403086 0.056432-0.604629 2.265344-11.625004 4.07117-23.35481 5.28849-35.181357a12.060337 12.060337 0 0 0-2.257282-8.239081c2.039616-2.015431 3.385923-4.740293 3.579405-7.819871a394.782554 394.782554 0 0 0 0.781987-24.926846zM428.577295 648.388222a12.092584 12.092584 0 0 0-12.092584 12.092584v211.249378l-0.290222-0.080617a368.243363 368.243363 0 0 1-19.630294-5.852811c-1.612345-0.524012-3.208566-1.080271-4.812849-1.628468a374.708865 374.708865 0 0 1-15.1641-5.562588c-1.854196-0.725555-3.716454-1.443048-5.562588-2.192789a362.575972 362.575972 0 0 1-15.623619-6.860526c-1.26569-0.588506-2.563628-1.128641-3.821256-1.725208a373.032026 373.032026 0 0 1-18.122753-9.319351c-0.51595-0.28216-1.015777-0.596567-1.531727-0.878728V186.346717c0.902913-0.499827 1.821949-0.967407 2.732924-1.459172a368.960857 368.960857 0 0 1 81.818422-32.625791V551.744292a12.092584 12.092584 0 0 0 12.092584 12.092584h452.028846a371.202015 371.202015 0 0 1-8.746969 43.4285c-0.588506 2.241159-1.330184 4.433947-1.96706 6.667044a357.859865 357.859865 0 0 1-4.651614 15.422075 371.742151 371.742151 0 0 1-6.860526 19.033727H428.577295zM161.766525 353.095387a12.100646 12.100646 0 0 0 16.196001-5.506157 373.015903 373.015903 0 0 1 24.418957-42.267611c3.708392-5.546465 2.216974-13.059991-3.329491-16.776445a12.116769 12.116769 0 0 0-16.776445 3.329491 398.249095 398.249095 0 0 0-26.015179 45.024721 12.108707 12.108707 0 0 0 5.506157 16.196001z" fill="#33363A" p-id="7631"></path><path d="M132.558904 449.408786a12.092584 12.092584 0 0 0 14.196694-9.537018 370.210424 370.210424 0 0 1 12.552102-47.185262 12.07646 12.07646 0 1 0-22.903354-7.747315 394.266604 394.266604 0 0 0-13.366336 50.26484 12.07646 12.07646 0 0 0 9.520894 14.204755zM223.027555 270.720705c3.361738 0 6.707353-1.394678 9.093623-4.11954a375.458605 375.458605 0 0 1 34.552543-34.528358 12.100646 12.100646 0 0 0-15.946088-18.187246 400.796599 400.796599 0 0 0-36.777578 36.769517 12.07646 12.07646 0 0 0 9.0775 20.065627zM718.565517 821.666887a371.145583 371.145583 0 0 1-42.299858 24.418958 12.100646 12.100646 0 0 0 10.689844 21.702157 397.072083 397.072083 0 0 0 45.056967-26.015179 12.100646 12.100646 0 0 0-13.446953-20.105936zM791.862699 757.390773a375.458605 375.458605 0 0 1-34.552543 34.528358 12.100646 12.100646 0 0 0 15.946087 18.187246 400.796599 400.796599 0 0 0 36.777578-36.769517 12.07646 12.07646 0 1 0-18.171122-15.946087zM631.111951 864.740671a371.653472 371.653472 0 0 1-47.217509 12.527917 12.084522 12.084522 0 1 0 4.643552 23.733711 397.120453 397.120453 0 0 0 50.305149-13.326028 12.108707 12.108707 0 0 0-7.731192-22.9356z" fill="#33363A" p-id="7632"></path><path d="M633.651393 342.856999m-114.516769 0a114.516769 114.516769 0 1 0 229.033538 0 114.516769 114.516769 0 1 0-229.033538 0Z" fill="#FF8F8F" p-id="7633"></path><path d="M519.134624 342.856999a114.516769 87.719603 0 1 0 229.033538 0 114.516769 87.719603 0 1 0-229.033538 0Z" fill="#FF1A1A" p-id="7634"></path><path d="M519.134624 342.856999c0 63.252275 51.264494 114.516769 114.516769 114.516769 63.236152 0 114.516769-51.264494 114.516769-114.516769h-229.033538z" fill="#FFFFFF" p-id="7635"></path><path d="M633.651393 430.576602c63.236152 0 114.516769-39.268651 114.516769-87.719603h-229.033538c0 48.450953 51.264494 87.719603 114.516769 87.719603z" fill="#D8E5EA" p-id="7636"></path><path d="M760.260746 342.856999c0-69.806456-56.794835-126.601291-126.609353-126.601291S507.042041 273.050543 507.042041 342.856999c0 65.735286 50.361581 119.885876 114.516769 125.996662v82.88257a12.092584 12.092584 0 0 0 24.185167 0V468.853661c64.155188-6.110786 114.516769-60.261376 114.516769-125.996662zM633.651393 240.440875c52.385073 0 95.636215 39.542749 101.642199 90.32354H532.001134c6.014045-50.78079 49.265187-90.32354 101.650259-90.32354z m0 204.840309c-52.385073 0-95.636215-39.542749-101.642198-90.331601h203.292458c-6.022107 50.796914-49.273248 90.331601-101.65026 90.331601z" fill="#33363A" p-id="7637"></path><path d="M633.643332 355.981483m-37.865911 0a37.865911 37.865911 0 1 0 75.731822 0 37.865911 37.865911 0 1 0-75.731822 0Z" fill="#A7BBC1" p-id="7638"></path><path d="M633.643332 343.106912m-37.865911 0a37.865911 37.865911 0 1 0 75.731822 0 37.865911 37.865911 0 1 0-75.731822 0Z" fill="#FFFFFF" p-id="7639"></path><path d="M606.862289 369.879893a37.873973 37.873973 0 0 1 53.554023-53.554023" fill="#D8E5EA" p-id="7640"></path><path d="M633.651393 393.03316a49.861754 49.861754 0 0 1-35.33453-14.599779 49.660211 49.660211 0 0 1-14.632026-35.33453c0-13.342151 5.199811-25.894253 14.632026-35.326469 19.493245-19.477122 51.191938-19.477122 70.652937 0a49.611841 49.611841 0 0 1 14.632026 35.326469 49.660211 49.660211 0 0 1-14.632026 35.326468 49.789199 49.789199 0 0 1-35.318407 14.607841z m0-75.691513c-6.602551 0-13.213163 2.523319-18.235616 7.545772a25.579846 25.579846 0 0 0-7.553834 18.219493c0 6.884711 2.684554 13.358274 7.553834 18.227555a25.837821 25.837821 0 0 0 36.447048 0 25.595969 25.595969 0 0 0 7.553834-18.227555c0-6.884711-2.684554-13.358274-7.553834-18.227554a25.676586 25.676586 0 0 0-18.211432-7.537711z" fill="#33363A" p-id="7641"></path></svg>