<?xml version="1.0" standalone="no"?><!DOCTYPE svg PUBLIC "-//W3C//DTD SVG 1.1//EN" "http://www.w3.org/Graphics/SVG/1.1/DTD/svg11.dtd"><svg t="1722564955465" class="icon" viewBox="0 0 1024 1024" version="1.1" xmlns="http://www.w3.org/2000/svg" p-id="3650" width="32" height="32" xmlns:xlink="http://www.w3.org/1999/xlink"><path d="M-391.52951673-418.65143927a685.10046401 685.10046401 0 0 0 298.31257291 367.98912862 685.25749594 685.25749594 0 0 0 10.56589255-473.62560935A685.39209148 685.39209148 0 0 0-381.00849123-892.20975081a684.9434349 684.9434349 0 0 0-10.5210255 473.55831154zM773.92642493-418.65143927a685.14533105 685.14533105 0 0 1-298.33500644 367.98912862 685.25749594 685.25749594 0 0 1-10.5434562-473.62560935A685.45938926 685.45938926 0 0 1 763.38296592-892.20975081a685.0780305 685.0780305 0 0 1 10.54345901 473.55831154z" fill="#FFBF31" p-id="3651"></path><path d="M-381.00849123-711.66985061a690.75355374 690.75355374 0 0 0-41.54571121 160.88868614 689.58704383 689.58704383 0 0 0 31.00225504 132.15215589 685.10046401 685.10046401 0 0 0 298.31257287 367.98913148 691.80789878 691.80789878 0 0 0 41.54571122-160.91112244 690.6413889 690.6413889 0 0 0-30.97982148-132.17458656A685.0780305 685.0780305 0 0 0-381.00849123-711.66985061zM465.04796229-343.7255861a688.57756302 688.57756302 0 0 0-30.97982147 132.17458656c7.38042099 55.34193958 21.31124491 109.3827736 41.52327767 160.91112244a685.23506242 685.23506242 0 0 0 298.33500644-367.98913148 689.1832515 689.1832515 0 0 0 30.9798215-132.19702015 688.37566687 688.37566687 0 0 0-41.500847-160.84382188 685.21262889 685.21262889 0 0 0-298.35743714 367.94426451z" fill="#FF8B00" p-id="3652"></path><path d="M-50.84121441-535.16787068A721.98013566 721.98013566 0 0 0-278.10882267-861.00559965l-2.26572204-1.8843632c-7.33555394-5.92228364-14.78327559-11.66510185-22.36559276-17.29575806-1.68246706-1.25624125-3.34250064-2.57978305-5.04739842-3.81359351a757.96249129 757.96249129 0 0 0-21.5804417-15.09733378c-2.06382588-1.39083958-4.06035393-2.87141053-6.1241798-4.2398166a729.65218411 729.65218411 0 0 0-28.24300655-17.78928162 33.67176938 33.67176938 0 0 0-48.56720699 16.6003382 703.94409079 703.94409079 0 0 0-12.56242059 34.90557706c-1.00948081 3.00600605-1.90679675 6.03444852-2.87140775 9.06288803a705.35736386 705.35736386 0 0 0-18.0809091 67.74732832l-1.09921216 4.89036934a720.23037077 720.23037077 0 0 0-11.46320847 74.70152341c-0.31406102 3.20790226-0.5608214 6.43824082-0.85244888 9.64614305a702.97947701 702.97947701 0 0 0-2.6919479 64.04590239c0 4.19494953-0.08973131 8.36746832 0 12.56241778 0.22432967 11.44077499 0.71785337 22.88154717 1.48057089 34.32232215l0.13459837 2.89384403c0.0224335 0.38135878 0.17946256 0.74028404 0.22432971 1.12164284 4.46414628 61.21935614 16.62277175 122.03492273 36.74507326 180.85396124A721.77823948 721.77823948 0 0 0-110.44540124-21.76874851a33.71663364 33.71663364 0 0 0 28.1308445 2.93870829 33.64933585 33.64933585 0 0 0 20.43636247-19.56148011 722.2717631 722.2717631 0 0 0 11.03697986-496.77635035z m-59.8733836 433.38100351a654.74876458 654.74876458 0 0 1-249.00507899-327.74452569 643.89124453 643.89124453 0 0 1-30.89009024-143.63779511l193.37151208-101.8004564c34.59151602 49.55425428 62.90182319 103.63995255 82.73249998 161.58410869a654.92822716 654.92822716 0 0 1 3.79115717 411.59866851zM844.34326755-626.71649561c0.08973131-4.50901053 0-9.01802106 0-13.52703436 0-7.89637823-0.06729778-15.79275359-0.31406103-23.6891318a727.61079179 727.61079179 0 0 0-2.37788687-39.392154c-0.29162745-3.32006708-0.53839069-6.66256769-0.87488242-9.98263765a724.963711 724.963711 0 0 0-11.44077218-74.63422561l-1.05434787-4.77820448a757.78302864 757.78302864 0 0 0-9.8480392-40.22217223 715.83352511 715.83352511 0 0 0-8.27773419-27.77191644c-0.94218022-2.96114183-1.83949618-5.94471719-2.82654623-8.88342546A729.45028797 729.45028797 0 0 0 794.74414621-904.5478418a33.69420007 33.69420007 0 0 0-48.567207-16.60033821c-9.57884528 5.72038747-18.97822511 11.66510185-28.24300655 17.78928167-2.06382588 1.36840605-4.06035393 2.82654348-6.10174628 4.21738305-7.29068972 4.93523641-14.53651236 9.9377705-21.62530594 15.11977013-1.68246706 1.2338077-3.29763351 2.51248243-4.98010343 3.76872369-7.58231716 5.6530897-15.07490305 11.39590788-22.41045701 17.34062504l-2.26572204 1.88436324a721.68850818 721.68850818 0 0 0-227.2676083 325.83772892 722.22689885 722.22689885 0 0 0 11.03697984 496.79878394 33.69420007 33.69420007 0 0 0 48.56720702 16.62277182 721.84553726 721.84553726 0 0 0 312.91638584-386.00274007 720.76875868 720.76875868 0 0 0 36.72263973-180.74179636c0.04486707-0.42622583 0.22432967-0.80758466 0.24676321-1.23380772 0.06729778-1.05434505 0.06729778-2.10869292 0.13459556-3.14060447 0.71785337-11.26130954 1.21137695-22.54505541 1.43570669-33.82879848z m-351.2766256 524.92962844a655.15255689 655.15255689 0 0 1 3.81359078-411.62110206 652.68493866 652.68493866 0 0 1 82.55303451-161.67383717l193.90990273 102.09208103a651.96708533 651.96708533 0 0 1-31.24901542 143.45833251 654.4795706 654.4795706 0 0 1-249.0275126 327.74452569z" fill="#33363A" p-id="3653"></path><path d="M-106.92343798 1867.64142331a48.63450481 48.63450481 0 0 1-48.6345076 48.61207124h-78.9862043a48.61207408 48.61207408 0 0 1-48.61207406-48.61207124v-97.20171465c0-26.85216976 21.75990426-48.58964051 48.61207406-48.58964048h78.9862043c26.85216976 0 48.63450481 21.73747079 48.6345076 48.58964048v97.20171465zM665.55313211 1867.64142331c0 26.85216976-21.75990426 48.61207408-48.61207126 48.61207124h-78.98620706a48.63450481 48.63450481 0 0 1-48.63450477-48.61207124v-97.20171465c0-26.85216976 21.78233502-48.58964051 48.63450477-48.58964048h78.98620706c26.85216976 0 48.61207408 21.73747079 48.61207126 48.58964048v97.20171465z" fill="#FF8B00" p-id="3654"></path><path d="M-155.55794558 1949.90283037h-78.9862043a82.35113842 82.35113842 0 0 1-82.26140986-82.26140706v-97.20171465a82.32870768 82.32870768 0 0 1 82.26140986-82.23897355h78.9862043a82.37357195 82.37357195 0 0 1 82.28384345 82.23897355v97.20171465a82.35113842 82.35113842 0 0 1-82.28384345 82.26140706z m-78.9862043-194.40342635a14.9627382 14.9627382 0 0 0-14.96273818 14.94030464v97.20171465c0 8.25530346 6.70743478 14.9627382 14.96273818 14.96273538h78.9862043a14.98517177 14.98517177 0 0 0 14.98517171-14.96273538v-97.20171465c0-8.23286989-6.72986831-14.9403047-14.98517171-14.94030464h-78.9862043zM616.94106085 1949.90283037h-78.98620706a82.37357195 82.37357195 0 0 1-82.28384058-82.26140706v-97.20171465a82.37357195 82.37357195 0 0 1 82.28384058-82.23897355h78.98620706a82.32870768 82.32870768 0 0 1 82.26140714 82.23897355v97.20171465a82.35113842 82.35113842 0 0 1-82.26140714 82.26140706z m-79.0086406-194.40342635a14.98517177 14.98517177 0 0 0-14.98516891 14.94030464v97.20171465c0 8.25530346 6.72986831 14.9627382 14.98516891 14.96273538h78.98620712a14.9627382 14.9627382 0 0 0 14.9627382-14.96273538v-97.20171465a14.9627382 14.9627382 0 0 0-14.9627382-14.94030464h-78.98620712z" fill="#33363A" p-id="3655"></path><path d="M779.22058656 1191.78331001V337.22479261c0-301.0942521-244.96716145-546.08384427-546.03897723-546.08384428h-84.01117475c-301.07181857 0-546.01654646 244.98959217-546.01654648 546.08384428v854.5585174a232.20284465 232.20284465 0 0 0-62.07180504 158.06214262v193.55097467c0 128.94425365 104.4924015 233.39178806 233.39178812 233.39179089h833.38186805c128.87695307 0 233.39178806-104.44753726 233.39178809-233.39179089v-193.55097467a231.95608423 231.95608423 0 0 0-62.02694076-158.06214262z" fill="#FFBF31" p-id="3656"></path><path d="M779.22058656 1191.78331001V481.28881358c0-301.0942521-244.96716145-546.06141072-546.03897723-546.06141354h-84.01117475c-301.07181857 0-546.01654646 244.96716145-546.01654648 546.06141354v854.58094811a232.24771172 232.24771172 0 0 0-62.07180504 158.06214263v49.46452298c0 128.94425365 104.4924015 233.39178806 233.39178812 233.39179089h833.38186805c128.87695307 0 233.39178806-104.44753726 233.39178809-233.39179089v-49.46452298c0-61.03989351-23.66669822-116.44913366-62.07180496-158.06214263v-144.08645168z" fill="#FF8B00" p-id="3657"></path><path d="M607.90060631 1810.43755121h-833.38186804c-147.24948969 0-267.04112395-119.79163423-267.04112394-267.04112391v-193.55097467c0-62.58776219 21.96180049-122.68547548 62.07180502-170.71429458v-841.90636544c0-319.66868487 260.0420617-579.73318011 579.66588231-579.73318014h84.01117197c319.64625136 0 579.68831303 260.06449521 579.68831581 579.73318014v841.8839319a265.80731625 265.80731625 0 0 1 62.07180505 170.71429456v193.55097751c-0.04486707 147.27192322-119.83649849 267.06355745-267.08598818 267.06355463zM149.17043458-175.18728514c-282.51981932 0-512.36721062 229.86982486-512.36721061 512.43451128V1191.8057407c0 8.45719963-3.20790226 16.62277175-8.92828972 22.83668288a198.9348704 198.9348704 0 0 0-53.12108461 135.22546257v193.55097468c0 110.14549121 89.59696385 199.74245505 199.74245507 199.74245508h833.38186808c110.14549121 0 199.74245505-89.61939741 199.74245222-199.74245508v-193.55097468a198.89000338 198.89000338 0 0 0-53.12108176-135.22546257 33.62690233 33.62690233 0 0 1-8.92829255-22.83668288V337.22479261c0-282.56468357-229.8473913-512.43450842-512.38964137-512.43450843h-84.01117475z" fill="#33363A" p-id="3658"></path><path d="M1772.75085663 666.96584357L1157.43911605 405.10671643l-592.34046503 450.67676439 275.4983236 117.30158256L166.60079101 1553.64825883l1311.62865276-445.71909451-308.56440447-131.32213771z" fill="#FFBF31" p-id="3659"></path><path d="M1011.04207241 1054.98754521l603.10825089-309.6636166-579.68831303-246.67205922-469.36335925 357.13161143 275.4983236 117.30158256L166.60079101 1553.64825883l1121.0612506-380.91047451z" fill="#FF8B00" p-id="3660"></path><path d="M166.60079101 1587.3200282a33.64933585 33.64933585 0 0 1-10.81265296-65.52647331l1228.24559999-417.38635382-227.51437152-96.82035297a33.64933585 33.64933585 0 0 1-2.22085773-60.90529791l539.2193804-276.86672962-531.27813517-226.07866486-530.69488301 403.76958812 222.24264341 94.64436227a33.64933585 33.64933585 0 1 1-26.35864612 61.89234522l-275.49832355-117.30158253a33.60446879 33.60446879 0 0 1-7.17852488-57.71982639l592.31803147-450.67676159a33.64933585 33.64933585 0 0 1 33.53717097-4.19495233l615.33417418 261.85912715a33.64933585 33.64933585 0 0 1 2.22085773 60.90529791L1248.89800682 973.75804963l242.52197675 103.21372672a33.64933585 33.64933585 0 0 1-2.35545334 62.83452544l-1311.65108624 445.71909453c-3.58926103 1.21137695-7.22339191 1.79463193-10.81265298 1.79463188zM10.82680112 479.78580909a33.64933585 33.64933585 0 0 1-23.80129663-57.42819891c122.39384801-122.43871506 321.53061459-122.43871506 443.96932961-0.044867a33.64933585 33.64933585 0 1 1-47.5801597 47.58016249c-96.14736672-96.16980026-252.68407417-96.12493322-348.80901018 0.04486426a33.53717101 33.53717101 0 0 1-23.7788631 9.84803916z" fill="#33363A" p-id="3661"></path><path d="M407.21597104 748.89075895c-8.61422875 0-17.2284602-3.27520283-23.80129664-9.84803923-96.16980026-96.14736672-252.63920995-96.14736672-348.80901018 0a33.64933585 33.64933585 0 1 1-47.58015973-47.58015974c122.4162815-122.4162815 321.5530481-122.4162815 443.96932961 0a33.64933585 33.64933585 0 0 1-23.77886306 57.42819897z" fill="#33363A" p-id="3662"></path><path d="M-195.03983093 1949.90283037h-174.438154a33.64933585 33.64933585 0 1 1 0-67.29867168h174.438154a33.64933585 33.64933585 0 1 1 0 67.29867168zM-513.83363341 1949.90283037h-2.01895877a33.64933585 33.64933585 0 1 1 0-67.29867168c18.57443278 0 34.65881382 15.05246955 34.65881384 33.64933586s-14.06542227 33.64933585-32.63985507 33.64933582zM-630.28276422 1949.90283037h-2.0189616a33.64933585 33.64933585 0 1 1 0-67.29867168c18.57443278 0 34.65881382 15.05246955 34.6588166 33.64933586s-14.06542227 33.64933585-32.639855 33.64933582zM-746.73189787 1949.90283037h-2.01895876a33.64933585 33.64933585 0 1 1 0-67.29867168c18.57443278 0 34.65881382 15.05246955 34.65881385 33.64933586s-14.06542227 33.64933585-32.63985509 33.64933582z" fill="#33363A" p-id="3663"></path></svg>