<?xml version="1.0" standalone="no"?><!DOCTYPE svg PUBLIC "-//W3C//DTD SVG 1.1//EN" "http://www.w3.org/Graphics/SVG/1.1/DTD/svg11.dtd"><svg t="1722565012733" class="icon" viewBox="0 0 1054 1024" version="1.1" xmlns="http://www.w3.org/2000/svg" p-id="3880" width="263.5" height="256" xmlns:xlink="http://www.w3.org/1999/xlink"><path d="M835.915027 145.355233m-57.053784 0a57.053784 57.053784 0 1 0 114.107569 0 57.053784 57.053784 0 1 0-114.107569 0Z" fill="#FFBF31" p-id="3881"></path><path d="M161.575575 594.117874a12.36715 12.36715 0 0 1-12.36715-12.367149V286.175845H26.773643a12.36715 12.36715 0 0 1 0-24.734299h134.801932a12.36715 12.36715 0 0 1 12.36715 12.36715v307.942029a12.36715 12.36715 0 0 1-12.36715 12.367149z" fill="#33363A" p-id="3882"></path><path d="M280.38266 458.491465a12.36715 12.36715 0 0 1-12.36715-12.367149v-57.713366H161.41068a12.36715 12.36715 0 1 1 0-24.734299H280.38266a12.36715 12.36715 0 0 1 12.36715 12.367149v70.245411a12.36715 12.36715 0 0 1-12.36715 12.202254zM108.149488 371.838969a12.36715 12.36715 0 0 1-8.739453-3.627697 12.614493 12.614493 0 0 1-3.627697-8.739452 12.36715 12.36715 0 0 1 3.627697-8.739453 12.861836 12.861836 0 0 1 17.478905 0 12.69694 12.69694 0 0 1 3.627698 8.8219 12.532045 12.532045 0 0 1-12.36715 12.36715zM52.332419 371.838969a12.449597 12.449597 0 0 1-8.739453-21.18905 12.861836 12.861836 0 0 1 17.478905 0 12.202254 12.202254 0 0 1 3.627697 8.739453 12.36715 12.36715 0 0 1-12.367149 12.36715zM108.149488 425.429952a12.36715 12.36715 0 0 1-12.36715-12.36715 12.36715 12.36715 0 0 1 21.106602-9.069243 12.532045 12.532045 0 0 1 3.627698 8.739452 12.36715 12.36715 0 0 1-3.627698 8.739453 12.532045 12.532045 0 0 1-8.739452 3.957488zM52.332419 425.429952a12.532045 12.532045 0 0 1-8.739453-3.627698 12.36715 12.36715 0 0 1-3.627697-8.739452 12.532045 12.532045 0 0 1 3.627697-9.069243 12.779388 12.779388 0 0 1 17.478905 0 12.532045 12.532045 0 0 1 3.627697 8.739452 12.202254 12.202254 0 0 1-3.627697 8.739453 12.532045 12.532045 0 0 1-8.739452 3.957488zM108.149488 479.185829a12.36715 12.36715 0 0 1-8.739453-3.627697 12.449597 12.449597 0 0 1 0-17.561353 12.861836 12.861836 0 0 1 17.478905 0 12.449597 12.449597 0 0 1-8.739452 21.18905zM52.332419 479.185829a12.532045 12.532045 0 0 1-8.739453-3.627697 12.449597 12.449597 0 0 1 0-17.561353 12.944283 12.944283 0 0 1 17.478905 0 12.449597 12.449597 0 0 1-8.739452 21.18905zM108.149488 532.776812a12.449597 12.449597 0 0 1-8.739453-3.54525 12.69694 12.69694 0 0 1-3.627697-8.8219 12.532045 12.532045 0 0 1 3.627697-8.739453 12.861836 12.861836 0 0 1 17.478905 0 12.449597 12.449597 0 0 1 0 17.561353 12.779388 12.779388 0 0 1-8.739452 3.54525zM52.332419 532.776812a12.284702 12.284702 0 0 1-12.36715-12.36715 12.532045 12.532045 0 0 1 3.627697-8.739453 12.861836 12.861836 0 0 1 17.478905 0 12.532045 12.532045 0 0 1 3.627697 8.739453 12.202254 12.202254 0 0 1-3.627697 8.739452 12.36715 12.36715 0 0 1-8.739452 3.627698z" fill="#33363A" p-id="3883"></path><path d="M628.229359 458.491465H280.38266a12.36715 12.36715 0 0 1 0-24.734299h347.846699a12.36715 12.36715 0 0 1 0 24.734299z" fill="#33363A" p-id="3884"></path><path d="M772.26543 458.491465H628.229359a12.36715 12.36715 0 0 1 0-24.734299h144.036071a12.36715 12.36715 0 0 1 0 24.734299zM280.38266 583.976812a12.36715 12.36715 0 0 1-12.36715-12.36715V375.878905a12.36715 12.36715 0 0 1 24.7343 0v195.730757a12.36715 12.36715 0 0 1-12.36715 12.36715z" fill="#33363A" p-id="3885"></path><path d="M699.958828 535.909823a12.449597 12.449597 0 0 1-8.739453-3.627697 12.284702 12.284702 0 0 1 0-17.478905l131.916264-131.916264a12.284702 12.284702 0 0 1 17.478905 0L948.208747 490.728502a12.36715 12.36715 0 1 1-17.478905 17.478905l-98.937198-98.937198L709.110519 531.869887a12.284702 12.284702 0 0 1-9.151691 4.039936z" fill="#33363A" p-id="3886"></path><path d="M860.89667 421.637359a12.449597 12.449597 0 0 1-8.739453-21.18905l150.466989-150.466989a12.449597 12.449597 0 0 1 17.478905 0l16.489533 16.489533a12.36715 12.36715 0 0 1-17.478905 17.478905l-7.585185-7.585185-141.892432 141.562641a12.202254 12.202254 0 0 1-8.739452 3.710145z" fill="#33363A" p-id="3887"></path><path d="M918.362692 454.204187m-74.12045 0a74.120451 74.120451 0 1 0 148.240901 0 74.120451 74.120451 0 1 0-148.240901 0Z" fill="#24D1AF" p-id="3888"></path><path d="M918.362692 380.001288a74.202899 74.202899 0 0 0-64.144283 37.10145 74.202899 74.202899 0 0 0 128.288567 0 74.202899 74.202899 0 0 0-64.144284-37.10145z" fill="#58ED9B" p-id="3889"></path><path d="M918.362692 606.155233a12.36715 12.36715 0 0 1-12.367149-12.367149V482.813527a12.36715 12.36715 0 0 1 24.734299 0V593.623188a12.36715 12.36715 0 0 1-12.36715 12.532045z" fill="#33363A" p-id="3890"></path><path d="M918.362692 495.180676a12.532045 12.532045 0 0 1-8.739452-3.627697l-28.60934-28.60934a12.449597 12.449597 0 0 1 0-17.478905A12.284702 12.284702 0 0 1 898.740148 445.217391l19.869887 19.869888 19.622545-19.869888a12.36715 12.36715 0 0 1 17.478905 17.478905l-28.526892 28.60934a12.69694 12.69694 0 0 1-8.821901 3.87504z" fill="#33363A" p-id="3891"></path><path d="M918.362692 392.368438a61.835749 61.835749 0 1 0 61.835749 61.835749 61.835749 61.835749 0 0 0-61.835749-61.835749z m0 148.405797a86.570048 86.570048 0 1 1 86.570049-86.487601 86.652496 86.652496 0 0 1-86.570049 86.405153z" fill="#33363A" p-id="3892"></path><path d="M757.342403 385.855072m-85.085991 0a85.08599 85.08599 0 1 0 170.171981 0 85.08599 85.08599 0 1 0-170.171981 0Z" fill="#24D1AF" p-id="3893"></path><path d="M757.342403 300.686634a84.838647 84.838647 0 0 0-73.625765 42.625443 85.003543 85.003543 0 0 0 147.251529 0 85.003543 85.003543 0 0 0-73.625764-42.625443z" fill="#58ED9B" p-id="3894"></path><path d="M757.342403 568.311755a12.36715 12.36715 0 0 1-12.36715-12.36715V418.669243a12.36715 12.36715 0 0 1 24.734299 0v137.275362a12.36715 12.36715 0 0 1-12.367149 12.36715z" fill="#33363A" p-id="3895"></path><path d="M757.342403 431.036393a12.36715 12.36715 0 0 1-8.739453-3.627697l-32.979066-32.979066a12.36715 12.36715 0 0 1 17.561353-17.478905l24.074718 24.074718 24.074718-24.074718a12.36715 12.36715 0 1 1 17.478905 17.478905l-32.979066 32.979066a12.36715 12.36715 0 0 1-8.492109 3.627697z" fill="#33363A" p-id="3896"></path><path d="M757.342403 313.301127a72.801288 72.801288 0 1 0 72.71884 72.801288A72.801288 72.801288 0 0 0 757.342403 313.301127z m0 170.254429a97.535588 97.535588 0 1 1 97.45314-97.700484 97.535588 97.535588 0 0 1-97.45314 97.453141zM12.427749 631.219324a12.037359 12.037359 0 0 1-4.781965-0.906925 12.449597 12.449597 0 0 1-6.595813-16.489533c3.627697-8.244767 10.388406-24.7343 167.203865-37.596135 96.876006-8.244767 224.340097-12.449597 358.977133-12.449597s262.183575 4.452174 359.059582 12.449597c156.650564 12.944283 163.576167 29.021578 167.203864 37.596135a12.36715 12.36715 0 0 1-22.095974 11.047987c-19.375201-15.335266-203.645733-36.35942-504.167472-36.35942S42.438699 610.112721 23.145945 625.118196a12.449597 12.449597 0 0 1-10.718196 6.101128z" fill="#33363A" p-id="3897"></path><path d="M627.404882 900.658293h22.673108a14.016103 14.016103 0 0 1 14.016103 14.016103v27.949759a14.016103 14.016103 0 0 1-14.016103 14.016103h-22.673108a13.933655 13.933655 0 0 1-13.933655-13.933656v-27.949758a14.016103 14.016103 0 0 1 13.933655-14.098551z" fill="#FF8B00" p-id="3898"></path><path d="M627.404882 913.025443a1.648953 1.648953 0 0 0-1.648953 1.648953v27.949759a1.566506 1.566506 0 0 0 1.648953 1.566505h22.673108a1.566506 1.566506 0 0 0 1.648954-1.566505v-27.949759a1.648953 1.648953 0 0 0-1.648954-1.648953z m22.755556 55.899517h-22.755556a26.383253 26.383253 0 0 1-26.383252-26.300805v-27.949759a26.4657 26.4657 0 0 1 26.383252-26.383253h22.755556a26.383253 26.383253 0 0 1 26.300805 26.383253v27.949759a26.300805 26.300805 0 0 1-26.300805 26.300805z" fill="#33363A" p-id="3899"></path><path d="M695.259311 285.104026a196.720129 196.720129 0 0 1-85.82802 105.780354A197.874396 197.874396 0 0 1 692.620986 148.900483a196.967472 196.967472 0 0 1 2.638325 136.203543z" fill="#FFBF31" p-id="3900"></path><path d="M606.463176 306.622866a196.802576 196.802576 0 0 0-8.904348 38.008374 196.637681 196.637681 0 0 0 11.872463 46.25314A197.297262 197.297262 0 0 0 704.163659 247.342995a196.720129 196.720129 0 0 0-11.542673-46.500483 196.390338 196.390338 0 0 0-86.15781 105.780354z" fill="#FF8B00" p-id="3901"></path><path d="M685.695382 167.863446a185.672142 185.672142 0 0 0-69.750725 204.057971 185.342351 185.342351 0 0 0 69.750725-204.057971z m-76.264091 235.388084a11.047987 11.047987 0 0 1-3.957487-0.659582 12.202254 12.202254 0 0 1-7.502738-7.172946 210.076651 210.076651 0 0 1 87.971659-257.154268 11.954911 11.954911 0 0 1 10.305958-1.071819 12.202254 12.202254 0 0 1 7.502737 7.172947A210.076651 210.076651 0 0 1 615.779762 401.520129a12.284702 12.284702 0 0 1-6.348471 1.731401z" fill="#33363A" p-id="3902"></path><path d="M647.522113 916.488245a67.112399 67.112399 0 0 0 67.112399-67.277295v-55.487279a66.865056 66.865056 0 0 0-17.808696-45.511111V502.436071a157.227697 157.227697 0 0 0-157.062802-156.650564h-24.157165" fill="#FFBF31" p-id="3903"></path><path d="M696.825816 789.683736V544.154589a157.310145 157.310145 0 0 0-157.062802-156.650563h-24.157165l5.029307 529.6438c37.019002 0 193.999356 23.250242 193.999356-67.112399v-14.263446a66.617713 66.617713 0 0 0-17.808696-46.088245z" fill="#FF8B00" p-id="3904"></path><path d="M647.522113 928.855395H520.635156a12.36715 12.36715 0 0 1 0-24.7343h126.886957a54.827697 54.827697 0 0 0 54.745249-54.910145v-55.487279a54.827697 54.827697 0 0 0-14.510789-37.101449 12.284702 12.284702 0 0 1-3.297906-8.244766V502.436071A144.7781 144.7781 0 0 0 539.763014 357.822866h-24.157165a12.36715 12.36715 0 0 1 0-24.734299h24.157165A169.594847 169.594847 0 0 1 709.110519 502.436071v241.15942a79.232206 79.232206 0 0 1 17.808695 50.12818V849.21095a79.561997 79.561997 0 0 1-79.397101 79.644445z" fill="#33363A" p-id="3905"></path><path d="M982.506976 597.333333L805.574287 521.976167 635.237411 651.583897l79.232206 33.721095-193.834461 167.038969 377.198068-128.206119-88.713688-37.76103 173.38744-89.043479z" fill="#FFBF31" p-id="3906"></path><path d="M763.44353 708.885024l173.469887-89.043478-166.709179-70.904992-134.966827 102.647343 79.232206 33.721095-193.834461 167.038969 322.370371-109.572947-79.561997-33.88599z" fill="#FF8B00" p-id="3907"></path><path d="M520.635156 864.711111a12.449597 12.449597 0 0 1-4.039935-24.157166l346.280193-117.735265-58.950081-24.7343a12.449597 12.449597 0 0 1-0.824476-22.425765l149.972302-77.006119L807.305688 535.909823 659.641919 648.533333l59.609662 25.393881a12.36715 12.36715 0 1 1-9.646376 22.755556l-79.232207-33.721095a12.36715 12.36715 0 0 1-2.638325-21.18905l170.336876-129.60773a12.36715 12.36715 0 0 1 12.36715-1.566505l176.932689 75.274718a12.449597 12.449597 0 0 1 0.824477 22.425765l-149.972303 77.006119 64.474074 27.455072a12.36715 12.36715 0 0 1-0.906924 23.085347L524.592644 864.05153a13.274074 13.274074 0 0 1-3.957488 0.659581zM655.601984 194.988728l37.843478 19.952335a184.930113 184.930113 0 0 0-7.75008-46.995169 190.371659 190.371659 0 0 0-30.093398 27.042834z m49.468599 52.60161a12.037359 12.037359 0 0 1-5.771337-1.484058l-68.926248-36.276972a12.36715 12.36715 0 0 1-4.122383-18.468277 211.560709 211.560709 0 0 1 59.279871-53.096297 12.449597 12.449597 0 0 1 10.388406-1.071819 12.202254 12.202254 0 0 1 7.502738 7.172947 211.14847 211.14847 0 0 1 14.016103 91.681803 12.614493 12.614493 0 0 1-6.348471 9.976168 13.109179 13.109179 0 0 1-5.688888 1.319162z" fill="#33363A" p-id="3908"></path><path d="M636.391678 198.863768l69.008696 36.276973A196.967472 196.967472 0 0 0 692.620986 148.900483a198.78132 198.78132 0 0 0-56.229308 49.963285zM220.690551 587.522061a12.36715 12.36715 0 0 1-12.36715-12.36715V387.504026a12.36715 12.36715 0 0 1 24.734299 0v187.650885a12.36715 12.36715 0 0 1-12.367149 12.36715zM80.282177 286.175845a12.36715 12.36715 0 0 1-12.36715-12.367149V176.025765a12.36715 12.36715 0 0 1 24.7343 0v97.782931a12.36715 12.36715 0 0 1-12.36715 12.367149zM218.546911 214.776167a69.420934 69.420934 0 0 1 0-138.841867 12.36715 12.36715 0 0 1 0 24.734299 44.686634 44.686634 0 1 0 0 89.373269 12.36715 12.36715 0 0 1 0 24.734299zM835.915027 100.668599a44.686634 44.686634 0 1 0 44.686635 44.686634 44.686634 44.686634 0 0 0-44.686635-44.686634z m0 114.107568a69.420934 69.420934 0 1 1 69.420934-69.420934 69.503382 69.503382 0 0 1-69.420934 69.420934zM835.915027 61.42351A12.36715 12.36715 0 0 1 823.547878 49.468599V19.457649a12.36715 12.36715 0 1 1 24.734299 0V49.468599a12.36715 12.36715 0 0 1-12.36715 11.954911zM835.915027 283.619968a12.36715 12.36715 0 0 1-12.367149-12.36715v-29.598712a12.36715 12.36715 0 0 1 24.734299 0v29.598712a12.36715 12.36715 0 0 1-12.36715 12.36715zM904.016799 89.620612a12.119807 12.119807 0 0 1-8.739453-3.627697 12.284702 12.284702 0 0 1 0-17.478905l20.941707-20.941707a12.449597 12.449597 0 0 1 17.478905 0 12.284702 12.284702 0 0 1 0 17.478905l-20.941707 20.941707a12.119807 12.119807 0 0 1-8.739452 3.627697zM746.871549 246.765862a12.449597 12.449597 0 0 1-8.739452-3.627698 12.284702 12.284702 0 0 1 0-17.478905l20.941707-20.941707a12.449597 12.449597 0 0 1 17.478905 0 12.284702 12.284702 0 0 1 0 17.478905l-20.941707 20.941707a12.284702 12.284702 0 0 1-8.739453 3.627698zM961.812612 157.722383h-29.598712a12.36715 12.36715 0 0 1 0-24.734299h29.598712a12.36715 12.36715 0 0 1 0 24.734299zM739.616155 157.722383h-29.598712a12.36715 12.36715 0 0 1 0-24.734299h29.598712a12.36715 12.36715 0 0 1 0 24.734299zM924.958506 246.765862a12.449597 12.449597 0 0 1-8.739453-3.627698L895.277346 222.608696a12.284702 12.284702 0 0 1 0-17.478905 12.449597 12.449597 0 0 1 17.478905 0l20.941707 20.941707a12.284702 12.284702 0 0 1 0 17.478905 12.449597 12.449597 0 0 1-8.739452 3.215459zM767.813256 89.620612a12.119807 12.119807 0 0 1-8.739452-3.627697l-20.941707-20.941707a12.449597 12.449597 0 0 1 0-17.478905 12.284702 12.284702 0 0 1 17.478905 0l20.941707 20.941707a12.284702 12.284702 0 0 1 0 17.478905 11.954911 11.954911 0 0 1-8.739453 3.627697zM527.725655 974.943639c-196.472786 0-350.237681-52.766506-357.740418-122.764573a12.36715 12.36715 0 1 1 24.734299-2.638325c5.194203 48.644122 140.161031 100.668599 333.171015 100.668599s327.894364-52.024477 333.171014-100.668599a12.36715 12.36715 0 1 1 24.7343 2.638325c-7.832528 69.998068-161.597424 122.764573-358.07021 122.764573z" fill="#33363A" p-id="3909"></path><path d="M527.230969 982.528824a12.36715 12.36715 0 0 1-12.367149-12.367149v-83.68438a12.36715 12.36715 0 1 1 24.734299 0v83.68438a12.36715 12.36715 0 0 1-12.36715 12.367149zM527.230969 861.000966a12.36715 12.36715 0 0 1-12.367149-12.36715V832.721417a12.36715 12.36715 0 0 1 24.734299 0v15.912399a12.36715 12.36715 0 0 1-12.36715 12.36715zM527.230969 1024a12.36715 12.36715 0 0 1-12.367149-12.36715v-1.813848a12.36715 12.36715 0 0 1 24.734299 0v1.813848a12.36715 12.36715 0 0 1-12.36715 12.36715zM527.230969 809.223833a12.36715 12.36715 0 0 1-12.367149-12.36715v-1.813849a12.36715 12.36715 0 0 1 24.734299 0v1.813849a12.36715 12.36715 0 0 1-12.36715 12.36715zM527.230969 709.049919a12.36715 12.36715 0 0 1-12.367149-12.367149V612.99839a12.36715 12.36715 0 0 1 24.734299 0V696.68277a12.36715 12.36715 0 0 1-12.36715 12.367149zM527.230969 587.522061a12.36715 12.36715 0 0 1-12.367149-12.36715v-15.912399a12.36715 12.36715 0 1 1 24.734299 0v15.912399a12.36715 12.36715 0 0 1-12.36715 12.36715zM527.230969 750.273752a12.36715 12.36715 0 0 1-12.367149-12.36715v-1.813848a12.36715 12.36715 0 0 1 24.734299 0v1.813848a12.36715 12.36715 0 0 1-12.36715 12.36715zM527.230969 535.909823a12.36715 12.36715 0 0 1-12.367149-12.36715v-1.731401a12.36715 12.36715 0 0 1 24.734299 0v1.731401a12.36715 12.36715 0 0 1-12.36715 12.36715zM527.230969 435.571014a12.36715 12.36715 0 0 1-12.367149-12.367149V249.486634a12.36715 12.36715 0 0 1 24.734299 0v173.717231a12.36715 12.36715 0 0 1-12.36715 12.367149zM527.230969 477.04219a12.36715 12.36715 0 0 1-12.367149-12.36715v-1.731401a12.36715 12.36715 0 0 1 24.734299 0v1.731401a12.36715 12.36715 0 0 1-12.36715 12.36715z" fill="#33363A" p-id="3910"></path><path d="M527.230969 262.34847a12.36715 12.36715 0 0 1-12.367149-12.36715v-1.813848a12.36715 12.36715 0 1 1 24.734299 0v1.813848a12.36715 12.36715 0 0 1-12.36715 12.36715zM527.230969 162.174557a12.36715 12.36715 0 0 1-12.367149-12.36715V65.958132a12.36715 12.36715 0 1 1 24.734299 0v83.849275a12.36715 12.36715 0 0 1-12.36715 12.36715zM527.230969 40.646699a12.36715 12.36715 0 0 1-12.367149-12.36715V12.36715a12.36715 12.36715 0 0 1 24.734299 0v15.912399a12.36715 12.36715 0 0 1-12.36715 12.36715zM527.230969 203.645733a12.36715 12.36715 0 0 1-12.367149-12.36715V189.62963a12.36715 12.36715 0 0 1 24.734299 0v1.813848a12.36715 12.36715 0 0 1-12.36715 12.202255zM603.330164 245.364251a12.119807 12.119807 0 0 1-8.739452-3.627697 3.54525 3.54525 0 0 0-5.688889 0 12.36715 12.36715 0 0 1-17.561353-17.396457 28.691787 28.691787 0 0 1 40.729147 0 12.284702 12.284702 0 0 1-8.739453 21.024154zM357.471227 513.07182H338.096026a12.36715 12.36715 0 0 1 0-24.7343h19.292753a12.36715 12.36715 0 0 1 0 24.7343zM426.150132 513.07182h-19.210306a12.36715 12.36715 0 0 1 0-24.7343h19.210306a12.36715 12.36715 0 0 1 0 24.7343zM494.746589 513.07182h-19.127858a12.36715 12.36715 0 0 1 0-24.7343H494.746589a12.36715 12.36715 0 0 1 0 24.7343zM316.494738 130.184863A60.928824 60.928824 0 0 0 255.648361 190.536554a12.36715 12.36715 0 0 1-7.090499 11.130435 42.872786 42.872786 0 0 0-24.7343 38.667955v4.452174a42.872786 42.872786 0 0 0 42.790338 42.790338h118.724638a42.872786 42.872786 0 0 0 42.790338-42.790338v-4.452174a42.955233 42.955233 0 0 0-39.574879-42.460548 12.36715 12.36715 0 0 1-11.460226-11.377778 61.011272 61.011272 0 0 0-60.599033-56.311755z m68.8438 182.126892H266.696348a67.524638 67.524638 0 0 1-67.524638-67.524637v-4.369727a67.936876 67.936876 0 0 1 32.15459-57.713365 85.580676 85.580676 0 0 1 169.100161-8.244767 67.854428 67.854428 0 0 1 52.519162 65.958132v4.452174a67.607085 67.607085 0 0 1-67.607085 67.44219zM182.352386 861.000966a12.36715 12.36715 0 0 1-8.739452-21.106602l53.920773-54.003221a12.532045 12.532045 0 0 1 17.478905 0l32.154589 32.237037a12.284702 12.284702 0 0 1 0 17.478905 12.449597 12.449597 0 0 1-17.478905 0l-23.415137-23.415137-45.18132 45.263769a12.614493 12.614493 0 0 1-8.739453 3.545249zM419.554319 790.920451a12.119807 12.119807 0 0 1-8.739453-3.627697 12.449597 12.449597 0 0 1 0-17.478905L519.480889 661.642512a12.284702 12.284702 0 0 1 17.478905 0 12.449597 12.449597 0 0 1 0 17.478905L428.293771 787.292754a11.954911 11.954911 0 0 1-8.739452 3.627697z" fill="#33363A" p-id="3911"></path><path d="M476.36076 862.814815a12.284702 12.284702 0 0 1-8.739452-3.627697L369.178795 760.744605l-98.442512 98.442513a12.36715 12.36715 0 1 1-17.561352-17.478905l107.181964-107.181965a12.36715 12.36715 0 0 1 17.478905 0l107.181965 107.181965a12.449597 12.449597 0 0 1 0 17.478905 12.614493 12.614493 0 0 1-8.657005 3.627697z" fill="#33363A" p-id="3912"></path></svg>