<?xml version="1.0" standalone="no"?><!DOCTYPE svg PUBLIC "-//W3C//DTD SVG 1.1//EN" "http://www.w3.org/Graphics/SVG/1.1/DTD/svg11.dtd"><svg t="1722672562366" class="icon" viewBox="0 0 1024 1024" version="1.1" xmlns="http://www.w3.org/2000/svg" p-id="6499" width="256" height="256" xmlns:xlink="http://www.w3.org/1999/xlink"><path d="M689.794544 979.885233a32.083467 32.083467 0 0 1-32.083468 32.083467H366.280903a32.083467 32.083467 0 0 1-32.083467-32.083467V44.114767a32.083467 32.083467 0 0 1 32.083467-32.083467H657.711076a32.083467 32.083467 0 0 1 32.083468 32.083467v935.770466z" fill="#FFFFFF" p-id="6500"></path><path d="M630.53638 923.04135a21.399673 21.399673 0 0 1-21.391652 21.399672H414.847251a21.391652 21.391652 0 0 1-21.383631-21.399672V299.178331a21.391652 21.391652 0 0 1 21.383631-21.391652h194.297477a21.399673 21.399673 0 0 1 21.391652 21.391652v623.863019z" fill="#B3C6C6" p-id="6501"></path><path d="M609.144728 344.632583H414.847251a21.391652 21.391652 0 0 0-21.383631 21.391652v557.017115a21.391652 21.391652 0 0 0 21.383631 21.399672h194.297477a21.399673 21.399673 0 0 0 21.391652-21.399672V366.024235a21.399673 21.399673 0 0 0-21.391652-21.391652z" fill="#CFE1E2" p-id="6502"></path><path d="M398.300203 459.298895c62.795366 0 113.703808 50.908441 113.703807 113.703807 0 3.007825 0.104271 4.780437 0.27271 5.446169 2.855429 60.252751 52.472511 108.257639 113.431098 108.257639 1.636257 0 3.216368-0.168438 4.828562-0.240626v236.583487a21.391652 21.391652 0 0 1-21.383631 21.399672H414.855272a21.399673 21.399673 0 0 1-21.391652-21.399672V459.539521c1.612194-0.072188 3.208347-0.240626 4.836583-0.240626z" fill="#D271FF" p-id="6503"></path><path d="M512.27672 631.105861c-0.168438-0.665732-0.272709-2.438344-0.27271-5.446168 0-62.795366-50.908441-113.703808-113.703807-113.703808-1.628236 0-3.216368 0.168438-4.828562 0.240626v410.844839a21.399673 21.399673 0 0 0 21.391652 21.399672h194.297477a21.391652 21.391652 0 0 0 21.383631-21.399672V739.114853c-1.612194 0.072188-3.192305 0.240626-4.828562 0.240626-60.966608 0.008021-110.58369-48.004888-113.439119-108.249618z" fill="#B122E0" p-id="6504"></path><path d="M657.711076 12.0313H366.280903a32.083467 32.083467 0 0 0-32.083467 32.083467v233.671912H689.794544V44.114767a32.083467 32.083467 0 0 0-32.083468-32.083467z" fill="#CFE1E2" p-id="6505"></path><path d="M609.144728 12.0313H414.855272c-11.814737 0-21.391652 14.365372-21.391652 32.083467v233.671912h237.07276V44.114767c0-17.718095-9.584936-32.083467-21.391652-32.083467z" fill="#A3CCCC" p-id="6506"></path><path d="M657.711076 0H366.288924a44.162893 44.162893 0 0 0-44.114768 44.114767v935.770466c0 24.327289 19.787478 44.114767 44.114768 44.114767H657.711076c24.327289 0 44.114767-19.787478 44.114768-44.114767V44.114767C701.825844 19.787478 682.038365 0 657.711076 0zM346.236757 44.114767c0-11.052754 8.999413-20.052167 20.052167-20.052167H657.711076c11.052754 0 20.052167 8.999413 20.052167 20.052167v221.640612H346.228736V44.114767z m272.268323 255.063564v375.13594a101.383756 101.383756 0 0 1-94.213102-96.450923 12.753178 12.753178 0 0 0-0.1925-1.644278 45.743003 45.743003 0 0 1-0.072188-3.232409c0-66.90205-52.56074-121.604361-118.53237-125.366148V299.178331c0-5.165438 4.194913-9.360352 9.352331-9.360351h194.297477c5.157417 0 9.360352 4.194913 9.360352 9.360351zM405.49492 471.578842c52.713137 3.70564 94.469769 47.780303 94.469769 101.42386 0 3.400848 0.120313 5.390022 0.328856 6.809716 3.448973 64.343393 54.614082 115.139543 118.203514 118.71685v224.512082c0 5.165438-4.194913 9.368372-9.360352 9.368372H414.855272a9.376393 9.376393 0 0 1-9.360352-9.368372V471.578842zM657.711076 999.9374H366.288924a20.07623 20.07623 0 0 1-20.052167-20.052167V289.81798h36.703486a32.885554 32.885554 0 0 0-1.499902 9.360351v623.863019a33.471077 33.471077 0 0 0 33.414931 33.430973h194.305498a33.471077 33.471077 0 0 0 33.414931-33.430973V299.178331a32.885554 32.885554 0 0 0-1.499902-9.360351H677.763243v690.067253c0 11.052754-8.991392 20.052167-20.052167 20.052167z" fill="#33363A" p-id="6507"></path><path d="M585.114211 127.547824a9.929833 9.929833 0 0 0-8.036908-6.777633l-38.796933-5.64669-17.349135-35.155459a9.945875 9.945875 0 0 0-17.854449 0l-17.349135 35.16348-38.796933 5.64669a9.969937 9.969937 0 0 0-5.518356 16.988196l28.073034 27.351156-6.633257 38.644536a9.953896 9.953896 0 0 0 14.461623 10.491294l34.690248-18.22341 34.69827 18.22341a9.977958 9.977958 0 0 0 10.491294-0.73792c3.071992-2.229801 4.603978-6.007629 3.962308-9.745353l-6.633257-38.644536 28.073034-27.351156c2.711053-2.654907 3.681578-6.617215 2.518552-10.226605z" fill="#FFD00B" p-id="6508"></path><path d="M554.514604 165.109543l22.674991-22.089467-0.120313-0.024063-38.796933-5.64669-17.349135-35.155459a9.945875 9.945875 0 1 0-17.854449 0l-17.349135 35.155459-38.796933 5.64669-0.112292 0.024063 22.66697 22.089467-3.264493 19.033517 3.264493 3.184284-4.243039 24.71229c0.481252 0.529377 0.986567 1.026671 1.57209 1.459798 3.088034 2.213759 7.146592 2.518552 10.499315 0.745941l34.690249-18.22341 34.698269 18.22341a9.977958 9.977958 0 0 0 10.491294-0.73792c0.585523-0.433127 1.098859-0.9224 1.57209-1.459798l-4.243039-24.71229 3.264493-3.184284-3.264493-19.041538z" fill="#FFBE08" p-id="6509"></path><path d="M472.66968 227.447719a22.009258 22.009258 0 0 1-12.873491-4.178871 21.896966 21.896966 0 0 1-8.806912-21.552069l5.566481-32.412323-23.541244-22.939679a22.121551 22.121551 0 0 1-5.574502-22.530615 21.832799 21.832799 0 0 1 17.790282-14.982979l32.500553-4.72429 14.549852-29.492728a21.856862 21.856862 0 0 1 19.715291-12.255884c8.317639 0 16.057775 4.81252 19.723311 12.263905l14.541831 29.476686 32.540657 4.732311a22.049363 22.049363 0 0 1 17.742157 14.974958 22.137592 22.137592 0 0 1-5.590544 22.546657l-23.525202 22.923637 5.566481 32.412323a21.856862 21.856862 0 0 1-8.750765 21.511965 22.314051 22.314051 0 0 1-23.212389 1.636256l-29.051579-15.255688-29.091684 15.287772c-3.208347 1.716465-6.721486 2.558657-10.218584 2.558656z m-19.851646-95.376126l25.065209 24.415518a12.0313 12.0313 0 0 1 3.465015 10.651711l-5.927421 34.497748 30.984608-16.274339c3.505119-1.836778 7.68399-1.844799 11.19713 0l30.984609 16.274339-5.9194-34.497748a12.0313 12.0313 0 0 1 3.465015-10.651711l25.065208-24.415518-34.634102-5.037105a12.0313 12.0313 0 0 1-9.055559-6.585131l-15.488294-31.393673-15.488294 31.393673a12.0313 12.0313 0 0 1-9.055558 6.585131l-34.658166 5.037105z" fill="#33363A" p-id="6510"></path><path d="M449.096352 583.62233m-10.691815 0a10.691815 10.691815 0 1 0 21.383631 0 10.691815 10.691815 0 1 0-21.383631 0Z" fill="#D271FF" p-id="6511"></path><path d="M458.448683 661.152028m-9.352331 0a9.352331 9.352331 0 1 0 18.704662 0 9.352331 9.352331 0 1 0-18.704662 0Z" fill="#D271FF" p-id="6512"></path><path d="M471.185819 628.442934m-3.376785 0a3.376785 3.376785 0 1 0 6.75357 0 3.376785 3.376785 0 1 0-6.75357 0Z" fill="#D271FF" p-id="6513"></path><path d="M534.061394 780.807319m-12.705053 0a12.705053 12.705053 0 1 0 25.410106 0 12.705053 12.705053 0 1 0-25.410106 0Z" fill="#D271FF" p-id="6514"></path><path d="M474.161561 774.454793m-6.352527 0a6.352526 6.352526 0 1 0 12.705053 0 6.352526 6.352526 0 1 0-12.705053 0Z" fill="#D271FF" p-id="6515"></path><path d="M509.429312 722.744264m-5.446168 0a5.446169 5.446169 0 1 0 10.892337 0 5.446169 5.446169 0 1 0-10.892337 0Z" fill="#D271FF" p-id="6516"></path><path d="M473.551975 859.395772m-24.455623 0a24.455623 24.455623 0 1 0 48.911246 0 24.455623 24.455623 0 1 0-48.911246 0Z" fill="#D271FF" p-id="6517"></path><path d="M551.250112 858.521497m-6.20013 0a6.20013 6.20013 0 1 0 12.40026 0 6.20013 6.20013 0 1 0-12.40026 0Z" fill="#D271FF" p-id="6518"></path><path d="M585.884214 835.605881m-8.694619 0a8.69462 8.69462 0 1 0 17.389239 0 8.69462 8.69462 0 1 0-17.389239 0Z" fill="#D271FF" p-id="6519"></path><path d="M587.215678 515.444962a12.0313 12.0313 0 0 1-12.0313-12.0313v-184.479936a12.0313 12.0313 0 1 1 24.0626 0v184.479936a12.0313 12.0313 0 0 1-12.0313 12.0313zM587.215678 570.588421a12.0313 12.0313 0 0 1-12.0313-12.0313v-9.360351a12.0313 12.0313 0 1 1 24.0626 0v9.360351a12.0313 12.0313 0 0 1-12.0313 12.0313zM587.215678 615.705797a12.0313 12.0313 0 0 1-12.0313-12.0313v-9.360352a12.0313 12.0313 0 1 1 24.0626 0v9.360352a12.0313 12.0313 0 0 1-12.0313 12.0313z" fill="#FFFFFF" p-id="6520"></path></svg>